<?xml version="1.0" encoding="UTF-8" standalone="no"?>
<!DOCTYPE svg PUBLIC "-//W3C//DTD SVG 1.1//EN" "http://www.w3.org/Graphics/SVG/1.1/DTD/svg11.dtd">

<svg width="267px" height="288px" viewBox="0 0 267 288" version="1.1" xmlns="http://www.w3.org/2000/svg" xmlns:xlink="http://www.w3.org/1999/xlink">
    <!-- Generator: Sketch 41.2 (35397) - http://www.bohemiancoding.com/sketch -->
    <title>logo_m</title>
    <desc>Created with Sketch.</desc>
    <defs>
        <polygon id="path-1" points="0.223639359 55.0186593 54.9597121 55.0186593 54.9597121 0.216705517 0.223639359 0.216705517 0.223639359 55.0186593"></polygon>
    </defs>
    <g id="Symbols" stroke="none" stroke-width="1" fill="none" fill-rule="evenodd">
        <g id="backgroung_full_logo" transform="translate(-227.000000, -103.000000)">
            <g id="logo_m" transform="translate(227.000000, 103.000000)">
                <g id="Group-2">
                    <g id="Page-1" transform="translate(1.250815, 233.213377)">
                        <path d="M19.576796,12.1679361 C18.1090017,15.1175649 16.759769,18.1192908 15.5285054,21.1713577 C14.2966489,24.2251806 13.1572706,27.3030033 12.1091848,30.4077525 L29.2455059,30.2526322 C28.5637759,28.7002575 27.8695969,27.1748095 27.1623761,25.6733612 C26.4551554,24.1730836 25.7337072,22.672806 25.0004028,21.1713577 C24.1615785,19.6710801 23.3227542,18.1444613 22.4851155,16.5920867 C21.6462912,15.0397121 20.6770489,13.5651903 19.576796,12.1679361 M41.271816,49.5016092 C41.2190561,50.4850139 40.9570346,51.2869571 40.4857517,51.908024 C40.013876,52.5285056 39.4364803,52.9031359 38.7565287,53.0330859 C38.0747987,53.161865 37.3930687,53.0453784 36.7125243,52.683626 C36.0307943,52.3212881 35.4551771,51.7019773 34.9833013,50.8210105 C34.6685199,48.3894253 34.2233206,45.9970591 33.6471105,43.6415706 C33.0697149,41.2878382 32.3891705,38.945813 31.6036989,36.617251 L10.772994,36.7723714 C10.667474,36.7723714 10.5495051,36.7606642 10.41968,36.7337377 C10.2880765,36.7079818 10.1701075,36.6951039 10.0657732,36.6951039 C8.75507315,41.0934987 7.57597664,45.6475992 6.52848367,50.3556494 C6.1081823,51.4420775 5.50648147,52.1661677 4.72041713,52.5285056 C3.93435279,52.890258 3.18800664,52.9675255 2.48019305,52.7614788 C1.77297226,52.5542614 1.19557659,52.0883149 0.750970063,51.3642246 C0.30517792,50.6407197 0.187208988,49.7088266 0.397063268,48.5703015 C2.12628625,41.0683282 4.21000884,33.7331825 6.6464526,26.5660351 C9.08289636,19.3994731 12.1352684,12.4009094 15.8035686,5.57034395 C16.11835,4.58810993 16.8516544,3.96704301 18.0046673,3.70772854 C18.5808774,3.50168184 19.1310039,3.46246272 19.6556396,3.59124191 C20.1784968,3.72119182 20.6248818,3.96704301 20.9918304,4.32879546 C21.0434047,4.32879546 21.0706739,4.34167338 21.0706739,4.36742922 C21.0706739,4.39435578 21.0961647,4.40606298 21.1489247,4.40606298 C23.8734735,6.99452474 26.1528229,9.91722703 27.9875659,13.1770967 C29.8211232,16.4369663 31.4975862,19.748933 33.0181405,23.111826 C33.5943506,24.3030335 34.1308424,25.4924849 34.6299874,26.6825217 C35.126761,27.8731439 35.6122714,29.0631807 36.0835543,30.2526322 L40.2498138,30.1753646 C41.2445468,30.4856054 41.9790368,30.9509666 42.4509126,31.5720335 C42.9221955,32.1931004 43.1444987,32.8270453 43.119008,33.473868 C43.0917388,34.1212762 42.8166755,34.7423431 42.2932254,35.3364834 C41.7691826,35.9323799 41.008609,36.3333515 40.013876,36.5393982 L38.3634966,36.5393982 C39.0434481,38.6619134 39.6332928,40.7967212 40.1318449,42.9432362 C40.6292114,45.0909219 41.008609,47.2778267 41.271816,49.5016092" id="Fill-1" fill="#FFFFFF"></path>
                        <path d="M19.576796,12.1679361 C18.1090017,15.1175649 16.759769,18.1192908 15.5285054,21.1713577 C14.2966489,24.2251806 13.1572706,27.3030033 12.1091848,30.4077525 L29.2455059,30.2526322 C28.5637759,28.7002575 27.8695969,27.1748095 27.1623761,25.6733612 C26.4551554,24.1730836 25.7337072,22.672806 25.0004028,21.1713577 C24.1615785,19.6710801 23.3227542,18.1444613 22.4851155,16.5920867 C21.6462912,15.0397121 20.6770489,13.5651903 19.576796,12.1679361 Z M41.271816,49.5016092 C41.2190561,50.4850139 40.9570346,51.2869571 40.4857517,51.908024 C40.013876,52.5285056 39.4364803,52.9031359 38.7565287,53.0330859 C38.0747987,53.161865 37.3930687,53.0453784 36.7125243,52.683626 C36.0307943,52.3212881 35.4551771,51.7019773 34.9833013,50.8210105 C34.6685199,48.3894253 34.2233206,45.9970591 33.6471105,43.6415706 C33.0697149,41.2878382 32.3891705,38.945813 31.6036989,36.617251 L10.772994,36.7723714 C10.667474,36.7723714 10.5495051,36.7606642 10.41968,36.7337377 C10.2880765,36.7079818 10.1701075,36.6951039 10.0657732,36.6951039 C8.75507315,41.0934987 7.57597664,45.6475992 6.52848367,50.3556494 C6.1081823,51.4420775 5.50648147,52.1661677 4.72041713,52.5285056 C3.93435279,52.890258 3.18800664,52.9675255 2.48019305,52.7614788 C1.77297226,52.5542614 1.19557659,52.0883149 0.750970063,51.3642246 C0.30517792,50.6407197 0.187208988,49.7088266 0.397063268,48.5703015 C2.12628625,41.0683282 4.21000884,33.7331825 6.6464526,26.5660351 C9.08289636,19.3994731 12.1352684,12.4009094 15.8035686,5.57034395 C16.11835,4.58810993 16.8516544,3.96704301 18.0046673,3.70772854 C18.5808774,3.50168184 19.1310039,3.46246272 19.6556396,3.59124191 C20.1784968,3.72119182 20.6248818,3.96704301 20.9918304,4.32879546 C21.0434047,4.32879546 21.0706739,4.34167338 21.0706739,4.36742922 C21.0706739,4.39435578 21.0961647,4.40606298 21.1489247,4.40606298 C23.8734735,6.99452474 26.1528229,9.91722703 27.9875659,13.1770967 C29.8211232,16.4369663 31.4975862,19.748933 33.0181405,23.111826 C33.5943506,24.3030335 34.1308424,25.4924849 34.6299874,26.6825217 C35.126761,27.8731439 35.6122714,29.0631807 36.0835543,30.2526322 L40.2498138,30.1753646 C41.2445468,30.4856054 41.9790368,30.9509666 42.4509126,31.5720335 C42.9221955,32.1931004 43.1444987,32.8270453 43.119008,33.473868 C43.0917388,34.1212762 42.8166755,34.7423431 42.2932254,35.3364834 C41.7691826,35.9323799 41.008609,36.3333515 40.013876,36.5393982 L38.3634966,36.5393982 C39.0434481,38.6619134 39.6332928,40.7967212 40.1318449,42.9432362 C40.6292114,45.0909219 41.008609,47.2778267 41.271816,49.5016092 Z" id="Stroke-3" stroke="#FFFFFF"></path>
                        <path d="M78.1166553,45.4657279 C79.2684826,45.4148015 80.1725159,45.6729453 80.8287551,46.2419152 C81.4832159,46.8114704 81.8626135,47.4582932 81.9687262,48.1823834 C82.0724677,48.9070591 81.8762481,49.6182714 81.3788816,50.3166059 C80.8803294,51.0149403 80.0551397,51.4943501 78.9027196,51.7524939 C76.177578,51.8566879 73.4654782,51.8953217 70.767013,51.8689805 C68.0673622,51.84381 65.3558552,51.8303467 62.6313064,51.8303467 C61.4782935,51.674641 60.627613,51.2748401 60.0768937,50.6268466 C59.5267672,49.9806093 59.264153,49.2822748 59.2908293,48.531258 C59.3169129,47.7819972 59.6311015,47.09537 60.233988,46.4748884 C60.8362816,45.8538215 61.7142313,45.5178249 62.8672442,45.4657279 L65.1863119,45.4657279 C65.945107,45.4657279 66.7187224,45.4920691 67.5053795,45.5429954 L67.5053795,11.6243123 L62.5530556,11.6243123 C61.3994499,11.4691919 60.5487694,11.069391 59.9986429,10.4213976 C59.4479236,9.77516017 59.1853094,9.07682573 59.2119858,8.3258089 C59.2380694,7.57654815 59.5528508,6.88992091 60.1557372,6.26943935 C60.7574381,5.64837243 61.6353878,5.31237581 62.7889935,5.26027877 L78.9809704,5.26027877 C79.9762962,5.57051955 80.7107862,6.03646609 81.1820691,6.65753301 C81.6539448,7.27801457 81.8762481,7.91254477 81.8501645,8.55878217 C81.8234881,9.20677565 81.5484249,9.82725721 81.0249748,10.4213976 C80.5003391,11.0167087 79.7403583,11.4182656 78.7456253,11.6243123 L73.9509885,11.6243123 L73.9509885,45.6208482 C74.6309401,45.6208482 75.3126701,45.6085557 75.9944001,45.5822145 C76.6749445,45.5564586 77.3821653,45.5178249 78.1166553,45.4657279" id="Fill-5" fill="#FFFFFF"></path>
                        <path d="M78.1166553,45.4657279 C79.2684826,45.4148015 80.1725159,45.6729453 80.8287551,46.2419152 C81.4832159,46.8114704 81.8626135,47.4582932 81.9687262,48.1823834 C82.0724677,48.9070591 81.8762481,49.6182714 81.3788816,50.3166059 C80.8803294,51.0149403 80.0551397,51.4943501 78.9027196,51.7524939 C76.177578,51.8566879 73.4654782,51.8953217 70.767013,51.8689805 C68.0673622,51.84381 65.3558552,51.8303467 62.6313064,51.8303467 C61.4782935,51.674641 60.627613,51.2748401 60.0768937,50.6268466 C59.5267672,49.9806093 59.264153,49.2822748 59.2908293,48.531258 C59.3169129,47.7819972 59.6311015,47.09537 60.233988,46.4748884 C60.8362816,45.8538215 61.7142313,45.5178249 62.8672442,45.4657279 L65.1863119,45.4657279 C65.945107,45.4657279 66.7187224,45.4920691 67.5053795,45.5429954 L67.5053795,11.6243123 L62.5530556,11.6243123 C61.3994499,11.4691919 60.5487694,11.069391 59.9986429,10.4213976 C59.4479236,9.77516017 59.1853094,9.07682573 59.2119858,8.3258089 C59.2380694,7.57654815 59.5528508,6.88992091 60.1557372,6.26943935 C60.7574381,5.64837243 61.6353878,5.31237581 62.7889935,5.26027877 L78.9809704,5.26027877 C79.9762962,5.57051955 80.7107862,6.03646609 81.1820691,6.65753301 C81.6539448,7.27801457 81.8762481,7.91254477 81.8501645,8.55878217 C81.8234881,9.20677565 81.5484249,9.82725721 81.0249748,10.4213976 C80.5003391,11.0167087 79.7403583,11.4182656 78.7456253,11.6243123 L73.9509885,11.6243123 L73.9509885,45.6208482 C74.6309401,45.6208482 75.3126701,45.6085557 75.9944001,45.5822145 C76.6749445,45.5564586 77.3821653,45.5178249 78.1166553,45.4657279 Z" id="Stroke-7" stroke="#FFFFFF"></path>
                        <path d="M148.190793,48.3373282 C149.133952,49.0104922 149.684671,49.7732162 149.841766,50.6272564 C149.99886,51.4807112 149.880891,52.2182648 149.487859,52.8393317 C149.094827,53.4598133 148.49194,53.8988332 147.679792,54.1587331 C146.867052,54.4168768 145.936935,54.2875123 144.889442,53.7706394 C144.418159,53.4598133 143.946283,53.1495725 143.474407,52.8393317 C143.003125,52.5285056 142.504572,52.2182648 141.981122,51.908024 C141.509247,51.4941745 141.195058,51.1060809 141.037964,50.743743 C140.880277,50.3819906 140.749266,49.863947 140.644932,49.1907831 L140.644932,6.11414335 C140.8536,5.13132397 141.260267,4.3808925 141.863153,3.86284893 C142.464854,3.34656145 143.093824,3.07436906 143.749471,3.04802786 C144.404524,3.02227203 145.046536,3.24178201 145.675506,3.70772854 C146.304476,4.17367507 146.775759,4.89835071 147.090541,5.88117009 L147.090541,47.6389938 C147.247635,47.7431879 147.417178,47.8596745 147.601542,47.9878683 C147.784127,48.1178182 147.980939,48.2343049 148.190793,48.3373282" id="Fill-9" fill="#FFFFFF"></path>
                        <path d="M148.190793,48.3373282 C149.133952,49.0104922 149.684671,49.7732162 149.841766,50.6272564 C149.99886,51.4807112 149.880891,52.2182648 149.487859,52.8393317 C149.094827,53.4598133 148.49194,53.8988332 147.679792,54.1587331 C146.867052,54.4168768 145.936935,54.2875123 144.889442,53.7706394 C144.418159,53.4598133 143.946283,53.1495725 143.474407,52.8393317 C143.003125,52.5285056 142.504572,52.2182648 141.981122,51.908024 C141.509247,51.4941745 141.195058,51.1060809 141.037964,50.743743 C140.880277,50.3819906 140.749266,49.863947 140.644932,49.1907831 L140.644932,6.11414335 C140.8536,5.13132397 141.260267,4.3808925 141.863153,3.86284893 C142.464854,3.34656145 143.093824,3.07436906 143.749471,3.04802786 C144.404524,3.02227203 145.046536,3.24178201 145.675506,3.70772854 C146.304476,4.17367507 146.775759,4.89835071 147.090541,5.88117009 L147.090541,47.6389938 C147.247635,47.7431879 147.417178,47.8596745 147.601542,47.9878683 C147.784127,48.1178182 147.980939,48.2343049 148.190793,48.3373282 Z" id="Stroke-11" stroke="#FFFFFF"></path>
                        <path d="M175.604995,49.5792279 C175.552235,50.7704354 175.198328,51.6631094 174.543867,52.2572498 C173.888221,52.8513901 173.167958,53.1499237 172.381894,53.1499237 C171.647404,53.1499237 170.967452,52.8777313 170.338482,52.3345173 C169.709512,51.7913032 169.31648,50.9507263 169.159386,49.8122012 C169.106626,44.9490306 169.0675,39.981666 169.041417,34.9095219 C169.014148,29.8391339 168.975022,24.8717692 168.923448,20.0074279 C169.184877,18.9725115 169.603992,18.1969096 170.181388,17.678866 C170.757005,17.1619932 171.412059,16.9026787 172.146549,16.9026787 C172.8265,16.9026787 173.469105,17.135652 174.071991,17.6010131 C174.673692,18.0669597 175.106443,18.7922207 175.369057,19.7744547 C175.420631,24.638796 175.459757,29.6061606 175.487026,34.6765486 C175.512517,39.7486927 175.552235,44.7160573 175.604995,49.5792279 M168.373321,7.35604305 C168.373321,6.21810328 168.739084,5.24816182 169.473574,4.44504795 C170.206879,3.6431048 171.097277,3.24213323 172.146549,3.24213323 C173.194042,3.24213323 174.098075,3.6431048 174.858056,4.44504795 C175.617444,5.24816182 175.998027,6.21810328 175.998027,7.35604305 C175.998027,8.44247114 175.617444,9.38724212 174.858056,10.1885999 C174.098075,10.9917138 173.194042,11.3921 172.146549,11.3921 C171.097277,11.3921 170.206879,10.9917138 169.473574,10.1885999 C168.739084,9.38724212 168.373321,8.44247114 168.373321,7.35604305" id="Fill-13" fill="#FFFFFF"></path>
                        <path d="M175.604995,49.5792279 C175.552235,50.7704354 175.198328,51.6631094 174.543867,52.2572498 C173.888221,52.8513901 173.167958,53.1499237 172.381894,53.1499237 C171.647404,53.1499237 170.967452,52.8777313 170.338482,52.3345173 C169.709512,51.7913032 169.31648,50.9507263 169.159386,49.8122012 C169.106626,44.9490306 169.0675,39.981666 169.041417,34.9095219 C169.014148,29.8391339 168.975022,24.8717692 168.923448,20.0074279 C169.184877,18.9725115 169.603992,18.1969096 170.181388,17.678866 C170.757005,17.1619932 171.412059,16.9026787 172.146549,16.9026787 C172.8265,16.9026787 173.469105,17.135652 174.071991,17.6010131 C174.673692,18.0669597 175.106443,18.7922207 175.369057,19.7744547 C175.420631,24.638796 175.459757,29.6061606 175.487026,34.6765486 C175.512517,39.7486927 175.552235,44.7160573 175.604995,49.5792279 Z M168.373321,7.35604305 C168.373321,6.21810328 168.739084,5.24816182 169.473574,4.44504795 C170.206879,3.6431048 171.097277,3.24213323 172.146549,3.24213323 C173.194042,3.24213323 174.098075,3.6431048 174.858056,4.44504795 C175.617444,5.24816182 175.998027,6.21810328 175.998027,7.35604305 C175.998027,8.44247114 175.617444,9.38724212 174.858056,10.1885999 C174.098075,10.9917138 173.194042,11.3921 172.146549,11.3921 C171.097277,11.3921 170.206879,10.9917138 169.473574,10.1885999 C168.739084,9.38724212 168.373321,8.44247114 168.373321,7.35604305 Z" id="Stroke-15" stroke="#FFFFFF"></path>
                        <path d="M204.39386,52.4123116 C203.738214,53.006452 203.017951,53.3049856 202.23248,53.3049856 C201.497397,53.3049856 200.817445,53.0333785 200.188475,52.4901645 C199.559505,51.9469504 199.166473,51.1063735 199.009379,49.967263 L199.009379,27.9243629 L197.358406,27.9243629 C196.205394,27.7686572 195.35412,27.3811489 194.803994,26.7600819 C194.253867,26.139015 193.978804,25.4670218 193.978804,24.7417608 C193.978804,24.0176705 194.279358,23.3058728 194.882837,22.6075384 C195.484538,21.9092039 196.388571,21.559744 197.594344,21.559744 L199.009379,21.559744 L199.009379,12.8665632 C199.009379,11.0560448 199.296891,9.37372031 199.873694,7.82134569 C200.449904,6.26897106 201.249603,4.93727715 202.271605,3.82450786 C203.293607,2.71232393 204.511829,1.84482046 205.926271,1.2243389 C207.341305,0.603271978 208.913434,0.292445838 210.643249,0.292445838 C211.375961,0.292445838 212.332754,0.40893247 213.511851,0.641905736 C214.690947,0.874879001 215.830326,1.2243389 216.931171,1.68970007 C218.031424,2.1556466 218.987032,2.7374944 219.800365,3.4364142 C220.611921,4.13474864 221.018587,4.94956971 221.018587,5.88087741 C221.018587,6.70916176 220.72989,7.40808155 220.153679,7.97646608 C219.576877,8.54660668 218.843572,8.83050626 217.953174,8.83050626 C217.428538,8.83050626 216.878411,8.71401963 216.302201,8.48104636 C215.724806,8.24865846 215.123105,8.00339263 214.494728,7.74349281 C213.865758,7.48534907 213.210111,7.23949788 212.529567,7.00652462 C211.847837,6.77355135 211.192783,6.65706472 210.564406,6.65706472 C209.200946,6.65706472 208.088244,7.11071869 207.223336,8.01568519 C206.359021,8.92123706 205.769176,10.357125 205.454988,12.3233492 L205.454988,21.4046236 C206.921596,21.353112 208.506767,21.3144782 210.210499,21.288137 C211.913046,21.2623812 213.5243,21.2237474 215.044854,21.1716504 C216.039587,21.4309648 216.774077,21.8582776 217.24536,22.452418 C217.717236,23.0477291 217.953174,23.6816739 217.953174,24.3536671 C217.953174,25.3891689 217.507381,26.139015 216.616983,26.6049615 C215.724806,27.0703227 214.624553,27.3811489 213.315631,27.5362692 C212.004931,27.6913896 210.643249,27.75695 209.228215,27.7300234 C207.813181,27.7048529 206.555241,27.7177308 205.454988,27.7686572 L205.454988,49.7342898 C205.402228,50.9254973 205.048321,51.8181712 204.39386,52.4123116" id="Fill-17" fill="#FFFFFF"></path>
                        <path d="M204.39386,52.4123116 C203.738214,53.006452 203.017951,53.3049856 202.23248,53.3049856 C201.497397,53.3049856 200.817445,53.0333785 200.188475,52.4901645 C199.559505,51.9469504 199.166473,51.1063735 199.009379,49.967263 L199.009379,27.9243629 L197.358406,27.9243629 C196.205394,27.7686572 195.35412,27.3811489 194.803994,26.7600819 C194.253867,26.139015 193.978804,25.4670218 193.978804,24.7417608 C193.978804,24.0176705 194.279358,23.3058728 194.882837,22.6075384 C195.484538,21.9092039 196.388571,21.559744 197.594344,21.559744 L199.009379,21.559744 L199.009379,12.8665632 C199.009379,11.0560448 199.296891,9.37372031 199.873694,7.82134569 C200.449904,6.26897106 201.249603,4.93727715 202.271605,3.82450786 C203.293607,2.71232393 204.511829,1.84482046 205.926271,1.2243389 C207.341305,0.603271978 208.913434,0.292445838 210.643249,0.292445838 C211.375961,0.292445838 212.332754,0.40893247 213.511851,0.641905736 C214.690947,0.874879001 215.830326,1.2243389 216.931171,1.68970007 C218.031424,2.1556466 218.987032,2.7374944 219.800365,3.4364142 C220.611921,4.13474864 221.018587,4.94956971 221.018587,5.88087741 C221.018587,6.70916176 220.72989,7.40808155 220.153679,7.97646608 C219.576877,8.54660668 218.843572,8.83050626 217.953174,8.83050626 C217.428538,8.83050626 216.878411,8.71401963 216.302201,8.48104636 C215.724806,8.24865846 215.123105,8.00339263 214.494728,7.74349281 C213.865758,7.48534907 213.210111,7.23949788 212.529567,7.00652462 C211.847837,6.77355135 211.192783,6.65706472 210.564406,6.65706472 C209.200946,6.65706472 208.088244,7.11071869 207.223336,8.01568519 C206.359021,8.92123706 205.769176,10.357125 205.454988,12.3233492 L205.454988,21.4046236 C206.921596,21.353112 208.506767,21.3144782 210.210499,21.288137 C211.913046,21.2623812 213.5243,21.2237474 215.044854,21.1716504 C216.039587,21.4309648 216.774077,21.8582776 217.24536,22.452418 C217.717236,23.0477291 217.953174,23.6816739 217.953174,24.3536671 C217.953174,25.3891689 217.507381,26.139015 216.616983,26.6049615 C215.724806,27.0703227 214.624553,27.3811489 213.315631,27.5362692 C212.004931,27.6913896 210.643249,27.75695 209.228215,27.7300234 C207.813181,27.7048529 206.555241,27.7177308 205.454988,27.7686572 L205.454988,49.7342898 C205.402228,50.9254973 205.048321,51.8181712 204.39386,52.4123116 Z" id="Stroke-19" stroke="#FFFFFF"></path>
                        <path d="M244.18733,26.4494899 C242.248253,27.4328947 240.807135,28.8166856 239.864569,30.6020335 C238.920817,32.3873814 238.449534,34.2634601 238.449534,36.2290988 C238.815297,35.9709551 239.20833,35.7637377 239.628631,35.6080319 C240.57179,35.3498882 241.527397,35.0782812 242.497232,34.7932109 C243.466474,34.5093113 244.448758,34.2377043 245.44527,33.9783898 C246.07424,33.8232694 246.92492,33.5902961 247.999683,33.27947 C249.073259,32.9692292 250.187147,32.6080621 251.34016,32.1930419 C252.49258,31.7791924 253.541258,31.300368 254.48501,30.7571539 C255.427576,30.2139399 256.056546,29.6063362 256.371327,28.9331723 C256.475661,27.2256773 256.056546,26.0613963 255.113387,25.4403294 C254.170228,24.8192624 253.042706,24.5090217 251.733192,24.5090217 C250.423085,24.5090217 249.06081,24.7297024 247.645776,25.1687223 C246.231334,25.608913 245.077729,26.0356404 244.18733,26.4494899 M259.514992,42.9818114 C260.615837,42.5685473 261.558996,42.5158649 262.34506,42.826691 C263.131125,43.1369318 263.6937,43.6298049 264.035158,44.3012127 C264.37543,44.9743767 264.42819,45.7253935 264.192252,46.5519218 C263.956314,47.3802061 263.339793,48.0791259 262.34506,48.6475105 C260.615837,49.6315006 258.755011,50.5370524 256.764359,51.3641661 C254.771929,52.191865 252.755194,52.7614203 250.711782,53.0716611 C248.667778,53.3824872 246.649857,53.3690239 244.659206,53.0330273 C242.667368,52.69586 240.754375,51.9079655 238.920817,50.6658316 C236.719719,49.165554 235.04207,47.134355 233.890243,44.5728198 C232.73723,42.0112846 232.133751,39.3473114 232.082769,36.5785587 C232.029416,33.8109768 232.540417,31.1452476 233.615179,28.5837124 C234.688756,26.0227625 236.378854,23.9658076 238.684879,22.413433 C241.094647,20.8101321 243.716047,19.6072173 246.545523,18.8041035 C249.374999,18.0027457 252.231151,17.9114295 255.113387,18.5324964 C256.528421,18.8427372 257.811852,19.5024379 258.964865,20.5115985 C260.117285,21.5207591 261.047995,22.68504 261.755809,24.0044414 C262.463029,25.3238427 262.842427,26.721097 262.895187,28.1956187 C262.947354,29.6707258 262.580998,31.0556875 261.794934,32.3481623 C260.90335,33.7975136 259.619919,35.0261841 257.943456,36.0353447 C256.265807,37.0445053 254.445292,37.8979601 252.480131,38.5962945 C250.51497,39.2952143 248.549809,39.8770621 246.584648,40.3430087 C244.619487,40.8083698 242.902713,41.2485605 241.436105,41.66241 C240.807135,41.8175304 240.204248,41.844457 239.628631,41.7402629 C240.414695,43.3968316 241.580157,44.7548667 243.126202,45.8149536 C244.671062,46.8762112 246.597097,47.3281091 248.903716,47.1729887 C250.737273,47.0699654 252.585058,46.5653851 254.445292,45.6592479 C256.304933,44.7548667 257.99503,43.8621928 259.514992,42.9818114" id="Fill-21" fill="#FFFFFF"></path>
                        <path d="M244.18733,26.4494899 C242.248253,27.4328947 240.807135,28.8166856 239.864569,30.6020335 C238.920817,32.3873814 238.449534,34.2634601 238.449534,36.2290988 C238.815297,35.9709551 239.20833,35.7637377 239.628631,35.6080319 C240.57179,35.3498882 241.527397,35.0782812 242.497232,34.7932109 C243.466474,34.5093113 244.448758,34.2377043 245.44527,33.9783898 C246.07424,33.8232694 246.92492,33.5902961 247.999683,33.27947 C249.073259,32.9692292 250.187147,32.6080621 251.34016,32.1930419 C252.49258,31.7791924 253.541258,31.300368 254.48501,30.7571539 C255.427576,30.2139399 256.056546,29.6063362 256.371327,28.9331723 C256.475661,27.2256773 256.056546,26.0613963 255.113387,25.4403294 C254.170228,24.8192624 253.042706,24.5090217 251.733192,24.5090217 C250.423085,24.5090217 249.06081,24.7297024 247.645776,25.1687223 C246.231334,25.608913 245.077729,26.0356404 244.18733,26.4494899 Z M259.514992,42.9818114 C260.615837,42.5685473 261.558996,42.5158649 262.34506,42.826691 C263.131125,43.1369318 263.6937,43.6298049 264.035158,44.3012127 C264.37543,44.9743767 264.42819,45.7253935 264.192252,46.5519218 C263.956314,47.3802061 263.339793,48.0791259 262.34506,48.6475105 C260.615837,49.6315006 258.755011,50.5370524 256.764359,51.3641661 C254.771929,52.191865 252.755194,52.7614203 250.711782,53.0716611 C248.667778,53.3824872 246.649857,53.3690239 244.659206,53.0330273 C242.667368,52.69586 240.754375,51.9079655 238.920817,50.6658316 C236.719719,49.165554 235.04207,47.134355 233.890243,44.5728198 C232.73723,42.0112846 232.133751,39.3473114 232.082769,36.5785587 C232.029416,33.8109768 232.540417,31.1452476 233.615179,28.5837124 C234.688756,26.0227625 236.378854,23.9658076 238.684879,22.413433 C241.094647,20.8101321 243.716047,19.6072173 246.545523,18.8041035 C249.374999,18.0027457 252.231151,17.9114295 255.113387,18.5324964 C256.528421,18.8427372 257.811852,19.5024379 258.964865,20.5115985 C260.117285,21.5207591 261.047995,22.68504 261.755809,24.0044414 C262.463029,25.3238427 262.842427,26.721097 262.895187,28.1956187 C262.947354,29.6707258 262.580998,31.0556875 261.794934,32.3481623 C260.90335,33.7975136 259.619919,35.0261841 257.943456,36.0353447 C256.265807,37.0445053 254.445292,37.8979601 252.480131,38.5962945 C250.51497,39.2952143 248.549809,39.8770621 246.584648,40.3430087 C244.619487,40.8083698 242.902713,41.2485605 241.436105,41.66241 C240.807135,41.8175304 240.204248,41.844457 239.628631,41.7402629 C240.414695,43.3968316 241.580157,44.7548667 243.126202,45.8149536 C244.671062,46.8762112 246.597097,47.3281091 248.903716,47.1729887 C250.737273,47.0699654 252.585058,46.5653851 254.445292,45.6592479 C256.304933,44.7548667 257.99503,43.8621928 259.514992,42.9818114 Z" id="Stroke-23" stroke="#FFFFFF"></path>
                    </g>
                    <g id="Page-1">
                        <path d="M213.640296,7.94729079 C235.177471,11.8743249 251.123661,29.4487683 252.738903,49.983401 C252.83862,51.2500666 253.406672,48.4657515 252.674379,53.7280699 C252.275508,56.5946039 248.940676,59.0401524 246.534485,59.6193938 C245.093672,59.9665059 241.781377,56.6233496 240.896575,54.326166 C239.088381,49.6310344 239.157535,44.134423 237.011597,39.6615297 C231.825041,28.8519086 223.073963,22.1606505 210.996696,20.2819797 C209.736178,20.0857052 208.47566,19.8875762 207.22039,19.6603924 C203.517559,18.9899684 199.933896,17.1066612 201.253998,13.1456268 C202.052666,10.7498424 205.533524,8.01652775 208.549445,7.73896171 C211.776841,7.44192277 212.709804,7.87959929 213.640296,7.94729079" id="Fill-1" fill="#FFFFFF"></path>
                        <path d="M207.205941,32.7905337 C218.752821,35.162827 227.525201,45.2296962 228.247923,56.2457918 C228.507251,60.1990988 227.922837,63.8216757 223.276238,64.437081 C218.88835,65.0184861 216.727903,62.3445174 216.051181,58.1566083 C214.971574,51.470914 211.508622,46.7405456 204.634583,45.1956959 C200.280654,44.2174146 195.539895,43.1729874 196.898279,37.3737734 C198.263454,31.546741 203.280521,32.193983 207.205941,32.7905337" id="Fill-3" fill="#FFFFFF"></path>
                        <g id="Group-7" transform="translate(0.000000, 0.255311)" fill="#FFFFFF">
                            <path d="M258.921648,135.279694 C257.050166,135.279694 255.178375,134.564761 253.750837,133.135203 L137.106116,16.350371 C136.040403,15.2839981 134.623361,14.6964112 133.116482,14.6964112 C131.609911,14.6964112 130.193487,15.2839981 129.127773,16.350371 L12.4833613,133.135203 C9.62828568,135.994627 4.99712331,135.994627 2.14173894,133.135203 C-0.713954144,130.276396 -0.713954144,125.64061 2.14173894,122.782113 L118.786151,5.99759023 C122.613705,2.16421151 127.703014,0.0537204662 133.116482,0.0537204662 C138.530567,0.0537204662 143.619875,2.16421151 147.447739,5.99759023 L264.092459,122.782113 C266.948152,125.64061 266.948152,130.276396 264.092459,133.135203 C262.664613,134.564761 260.79313,135.279694 258.921648,135.279694" id="Fill-5"></path>
                        </g>
                        <path d="M111.226529,124.592969 L89.9480651,124.592969 C85.7290487,124.592969 82.3087002,121.16883 82.3087002,116.944757 L82.3087002,95.64079 C82.3087002,91.416717 85.7290487,87.9925782 89.9480651,87.9925782 L111.226529,87.9925782 C115.445545,87.9925782 118.865585,91.416717 118.865585,95.64079 L118.865585,116.944757 C118.865585,121.16883 115.445545,124.592969 111.226529,124.592969" id="Fill-8" fill="#FFFFFF"></path>
                        <path d="M162.459701,175.546645 L138.976333,175.546645 C135.366119,175.546645 132.439729,172.616747 132.439729,169.001898 L132.439729,145.490384 C132.439729,141.875844 135.366119,138.945946 138.976333,138.945946 L162.459701,138.945946 C166.069605,138.945946 168.996305,141.875844 168.996305,145.490384 L168.996305,169.001898 C168.996305,172.616747 166.069605,175.546645 162.459701,175.546645" id="Fill-10" fill="#FFFFFF"></path>
                        <g id="Group-14" transform="translate(63.905780, 138.729240)">
                            <mask id="mask-2" fill="white">
                                <use xlink:href="#path-1"></use>
                            </mask>
                            <g id="Clip-13"></g>
                            <path d="M46.4691963,40.22918 C46.4691963,43.7024647 43.6570332,46.5179982 40.1882151,46.5179982 L14.9951363,46.5179982 C11.5260095,46.5179982 8.71415517,43.7024647 8.71415517,40.22918 L8.71415517,15.0059066 C8.71415517,11.532931 11.5260095,8.71739747 14.9951363,8.71739747 L40.1882151,8.71739747 C43.6570332,8.71739747 46.4691963,11.532931 46.4691963,15.0059066 L46.4691963,40.22918 Z M43.3004575,0.216705517 L11.8825852,0.216705517 C5.4435376,0.216705517 0.223639359,5.44285996 0.223639359,11.8899341 L0.223639359,43.3454616 C0.223639359,49.7922267 5.4435376,55.0186902 11.8825852,55.0186902 L43.3004575,55.0186902 C49.7398139,55.0186902 54.9597121,49.7922267 54.9597121,43.3454616 L54.9597121,11.8899341 C54.9597121,5.44285996 49.7398139,0.216705517 43.3004575,0.216705517 L43.3004575,0.216705517 Z" id="Fill-12" fill="#F3BA1F" mask="url(#mask-2)"></path>
                        </g>
                        <path d="M175.126413,125.617459 L142.443083,125.617459 C136.353201,125.617459 131.416403,120.674744 131.416403,114.577563 L131.416403,81.8550613 C131.416403,75.7581902 136.353201,70.8154746 142.443083,70.8154746 L175.126413,70.8154746 C181.216294,70.8154746 186.152784,75.7581902 186.152784,81.8550613 L186.152784,114.577563 C186.152784,120.674744 181.216294,125.617459 175.126413,125.617459" id="Fill-15" fill="#FFFFFF"></path>
                    </g>
                </g>
            </g>
        </g>
    </g>
</svg>